<?xml version="1.0" standalone="no"?><!DOCTYPE svg PUBLIC "-//W3C//DTD SVG 1.1//EN" "http://www.w3.org/Graphics/SVG/1.1/DTD/svg11.dtd"><svg t="1626454312872" class="icon" viewBox="0 0 1024 1024" version="1.1" xmlns="http://www.w3.org/2000/svg" p-id="2733" xmlns:xlink="http://www.w3.org/1999/xlink" width="22" height="22"><defs><style type="text/css"></style></defs><path d="M413.298194 507.452221l0.099951-0.099952v0.099952zM413.398145 507.452221v0.099951h-0.099951z" fill="#FFFFFF" p-id="2734"></path><path d="M512.049976 0c282.661981 0 511.750122 229.088141 511.750122 511.750122s-229.088141 511.750122-511.750122 511.750122S0.299854 794.412103 0.299854 511.750122s229.088141-511.750122 511.750122-511.750122z" fill="#EAB300" p-id="2735"></path><path d="M585.214251 268.36896l0.199902-94.453879-72.464617-0.099952-0.199902 93.754222-64.868326-0.099951 0.199902-93.754222-72.464617-0.099951-0.199902 93.754222-99.151586-0.199903-0.099951 49.076037 71.665007 0.099951-0.699658 390.409371-71.665008-0.099951-0.099951 49.076037 99.151586 0.199902-0.299853 93.554319 72.464617 0.099951 0.199902-93.754221 60.870278 0.199902-0.199902 93.754222 72.464617 0.099951 0.199902-93.754221h3.29839c112.145242 0.299854 164.819522-62.969253 165.019424-132.03553 0.199902-59.770815-43.178917-112.644998-133.234944-123.439727 73.264226-13.39346 113.044802-57.471938 113.044802-110.146217 0.199902-59.37101-46.477306-115.043826-143.130112-122.140362z m51.175012 354.027136c0 30.585066-16.891752 84.758614-81.06042 84.558711l-108.247145-0.199902 0.399805-176.813665 115.943387 0.199902c20.789849 0.299854 73.064324 23.288629 72.964373 92.254954z m-16.292045-232.186628c-0.099951 52.67428-21.489507 83.359297-83.259346 83.259346l-89.156466-0.199902 0.299853-156.823426 106.747877 0.199902c13.693314 0 65.468033 11.194534 65.368082 73.56408z" fill="#FFFFFF" p-id="2736"></path></svg>